PathFileType	4	(X/Y/Z)	path1_22_0-584.trc
DataRate	CameraRate	NumFrames	NumMarkers	Units	OrigDataRate	OrigDataStartFrame	OrigNumFrames
30	30	6	22	m	30	146	584
Frame#	Time	Hip			RHip			RKnee			RAnkle			RBigToe			RSmallToe			RHeel			LHip			LKnee			LAnkle			LBigToe			LSmallToe			LHeel			Neck			Head			Nose			RShoulder			RElbow			RWrist			LShoulder			LElbow			LWrist		
		X1	Y1	Z1	X2	Y2	Z2	X3	Y3	Z3	X4	Y4	Z4	X5	Y5	Z5	X6	Y6	Z6	X7	Y7	Z7	X8	Y8	Z8	X9	Y9	Z9	X10	Y10	Z10	X11	Y11	Z11	X12	Y12	Z12	X13	Y13	Z13	X14	Y14	Z14	X15	Y15	Z15	X16	Y16	Z16	X17	Y17	Z17	X18	Y18	Z18	X19	Y19	Z19	X20	Y20	Z20	X21	Y21	Z21	X22	Y22	Z22
147	4.9	2.5183987664568703	0.8311163485927332	0.588921151796125	2.5169908333330455	0.7915926933837951	0.510288550717801	2.487934038837797	0.46004762675147015	0.5019911817384269	2.5500824220930705	0.09999863552976575	0.539099058519579	2.353132199535701	0.01614717450876508	0.5234073144321653	2.386395582238504	0.020709537484255927	0.464257292241393	2.597602131823807	0.03439502362817456	0.538629601601458	2.512907211192466	0.7902257790091262	0.6662637789283568	2.51506870058541	0.43197783376614846	0.6373990623119574	2.5468333992308327	0.10440379118387685	0.6433873415530394	2.377261834501922	0.010960823593553104	0.6464051945193832	2.4097937845700352	0.023074454350240407	0.7072294778296322	2.58455571004991	0.040181650445244306	0.6415113380188301	2.4792422142950525	1.472176102429373	0.6009457242699316	2.450789383768838	1.7168994853839243	0.5467388459629133	2.3460784238927164	1.6093239144780465	0.5777838044027716	2.531485513487576	1.3685994691642653	0.42768855919036897	2.544533274907149	1.0756425606134608	0.4047131656969925	2.497054901533102	0.8447782691866584	0.3751987604343968	2.4867040505679396	1.3478797419855515	0.7564207278854279	2.519949010499234	1.0694225676888647	0.7913553285462442	2.510461808352084	0.8366423165794775	0.7963113581014216
148	4.933333333333334	2.5186372596844433	0.831034857132993	0.5891733583764867	2.517212870618337	0.7914203833332255	0.5111068769399566	2.4880394502941674	0.45987037148229387	0.5025860933929411	2.54999026525003	0.10030393784062218	0.5391448675530455	2.3531143789299986	0.015925101148728093	0.5232651049544617	2.386787753857148	0.02063754058356376	0.4640086126712829	2.59723344146473	0.03500078580651125	0.5392731051325622	2.513024290830312	0.7899199762265091	0.6667863409254624	2.515397577836233	0.4316565176160541	0.63774554909348	2.546485987675291	0.10446394813370545	0.6421328438364696	2.377195893080704	0.01077953939382555	0.6457686339080334	2.409572830176232	0.023435772307971427	0.7071164598495261	2.583729585883535	0.04056174744281962	0.6412602835521174	2.479036132236408	1.4721091689751304	0.6013710958064317	2.4506477360570083	1.7164787904416081	0.5467345413931399	2.3461686533365436	1.6089553624198623	0.5781746495641614	2.5315189165579004	1.3687170064209568	0.4286037906438595	2.544515054959339	1.07577638153209	0.40549653026902777	2.4967791934682335	0.844571029787791	0.3756895145043543	2.490138603190774	1.3483349968200822	0.7527717123597003	2.5198167952212995	1.069045633832198	0.7916129388196179	2.510436071133806	0.8366122538489649	0.7966620910819666
149	4.966666666666667	2.5188836790090394	0.8310217142582174	0.5893994038573429	2.517427490098338	0.79136249013732	0.5118605777011593	2.4880725885623867	0.4597580224232258	0.5033912410102015	2.549666764387919	0.1006049229674379	0.5389939871483201	2.353394748464172	0.015681715955728422	0.5230131109152409	2.38714072319891	0.02058529976481096	0.463819438811404	2.596585143660978	0.035555188937388404	0.5389028235890913	2.5131092443994585	0.7896165021351725	0.6672189246998601	2.5158855923755303	0.4313325021771464	0.6379719748834516	2.5470283506978455	0.10330286509458668	0.6406144496202472	2.377388453509365	0.010310349514331836	0.6450468111698227	2.4088576293130957	0.02386449709556693	0.7069229656453403	2.583428965331924	0.04087807615983211	0.6413267481259234	2.478911213431801	1.4720471884158666	0.601869471884849	2.45047846910806	1.7160919007698414	0.5472423467173335	2.346177942196481	1.6086724426157193	0.5789541926685705	2.531528552051718	1.368812560896663	0.42957936837526195	2.544548108753371	1.0757277967585923	0.4063379412582801	2.496471590764903	0.8443333912747958	0.37633003849244584	2.4918724893563415	1.3485930746293884	0.751069239341483	2.5197014181504622	1.0686506808566343	0.7919425183270372	2.5106064600868545	0.8364983558366884	0.7969594988507726
150	5.0	2.519046453163638	0.8310723625598667	0.5896799746386991	2.517556955890609	0.791402087036284	0.5124867854052522	2.488054046991864	0.4596741200810032	0.5041705158992269	2.5492068791222837	0.10087044240585054	0.538706605554902	2.3538578554740766	0.015426666786775501	0.522841972528568	2.3874335758738803	0.020627608566567836	0.4636565652323005	2.595853034555424	0.03596364945417951	0.5376338642869818	2.5130867968376727	0.7894066884694104	0.6675962195442507	2.5164160637593733	0.4310898348570479	0.6380394759749334	2.548302216552807	0.10131475146637399	0.6392775644289289	2.3778071392695574	0.009841549886697068	0.6444645122733186	2.4075050881455415	0.024435281174241496	0.7065357849175562	2.583470530315675	0.04111847226247085	0.6416185193502898	2.478824127261752	1.4720139748230638	0.6024167105052936	2.4502656707570205	1.7158120308184162	0.5482815883283205	2.3461438500244776	1.6084983949338647	0.5800205279974414	2.5315139918755487	1.3689382074225682	0.43055768254178783	2.5446026042647385	1.0756428606638229	0.40709018847226797	2.49621303109796	0.844052500041453	0.37699082775429266	2.491313360198143	1.3485325299377007	0.7521806724892498	2.519623921661943	1.0683533769283078	0.7922714224853373	2.5109396649258193	0.8362906229589239	0.7972385097889146
151	5.033333333333333	2.5191003557078835	0.8311602217156966	0.5900898417015509	2.5175506187021006	0.7915317261318996	0.5129397707312093	2.4880469396948484	0.45958184385642	0.5047369086674863	2.548751579115198	0.10109901188619524	0.5383259042893338	2.354314542066359	0.015264762996843657	0.5228007006832168	2.387718424542033	0.020742596737760202	0.4634889670688178	2.595237354726409	0.036162017069531774	0.5355505555563222	2.5129632024614694	0.7893796599894062	0.6680091454247221	2.5169487764864833	0.43098264346046167	0.6378924910685749	2.5495121364308293	0.09956524406726383	0.6383903763825308	2.378400360779421	0.009554512455795345	0.6441309027683212	2.405581416844272	0.02515288644974382	0.7059001491465617	2.5835832080805083	0.04132980871300146	0.641975167309373	2.478747445367034	1.4720276479694396	0.6030020625481438	2.4499779384619327	1.7156528157441244	0.5495638354315622	2.346042902947272	1.608390043870957	0.5809996579065734	2.5314858947598444	1.3691108489948798	0.43148216703700687	2.544626281964766	1.0756542998749354	0.4076110993085606	2.4960932241545746	0.8437756192502379	0.37756456137033867	2.4893767374759412	1.348238103034566	0.7550163472173141	2.519633900801706	1.068216959096236	0.7925456616591925	2.5113926496832946	0.8360489921755968	0.7975672741541866
152	5.066666666666666	2.5190406961733878	0.8312651928936349	0.5906027577683425	2.5173787703954327	0.7917372183054304	0.5132084692409196	2.488107141167214	0.4594494216749232	0.5050301568290009	2.5483869109386394	0.10133206528385945	0.5378269453067767	2.354601406357407	0.015239206956089888	0.5227877883673221	2.387996557247623	0.02084983311344432	0.46330668560394234	2.594781339228587	0.03615046746259	0.5326199393447111	2.512806938950169	0.7895192264162891	0.668480354587757	2.5174641380484557	0.4310060451615639	0.6375286652179731	2.5499950673813556	0.0989157924354494	0.6380957598389146	2.3791013762012594	0.009508218731544981	0.6440657644354467	2.403544366119164	0.02587239248625992	0.7051603761077097	2.583698852095861	0.041536850173824705	0.6422700720915593	2.4786741061901205	1.4721004343397517	0.6036003055546195	2.449602988531991	1.7155628192108228	0.5506933896071794	2.3457958590099537	1.6082871865174937	0.5815440029278041	2.5314722748891247	1.3693043869335253	0.43226000136474035	2.5445893150628143	1.075855281439379	0.4078182748037218	2.4961677079912623	0.8435755898026951	0.37799689303820855	2.4876761319281293	1.3479349309457573	0.7574959096492576	2.5197716090368623	1.068223650698196	0.7927554316507557	2.511911295749669	0.8358466537754266	0.7979717389265258
